<svg width="23" height="22" viewBox="0 0 23 22" fill="none" xmlns="http://www.w3.org/2000/svg">
<path d="M3.5 11C3.5 12.5823 3.96918 14.129 4.84824 15.4446C5.72729 16.7602 6.97671 17.7856 8.43852 18.3911C9.90033 18.9966 11.5089 19.155 13.0607 18.8463C14.6126 18.5376 16.038 17.7757 17.1568 16.6569C18.2757 15.538 19.0376 14.1126 19.3463 12.5607C19.6549 11.0089 19.4965 9.40035 18.891 7.93854C18.2855 6.47673 17.2601 5.22732 15.9445 4.34827C14.629 3.46922 13.0823 3 11.5 3C9.37904 3.00252 7.34566 3.84621 5.84592 5.34595C4.34617 6.8457 3.50251 8.87904 3.5 11ZM1.5 11C1.5 9.02219 2.08649 7.08877 3.1853 5.44428C4.28412 3.79979 5.8459 2.51811 7.67316 1.76123C9.50042 1.00436 11.5111 0.806291 13.4509 1.19214C15.3907 1.578 17.1725 2.53043 18.5711 3.92896C19.9696 5.32748 20.922 7.10927 21.3078 9.04908C21.6937 10.9889 21.4957 12.9996 20.7388 14.8268C19.9819 16.6541 18.7002 18.2159 17.0557 19.3147C15.4112 20.4135 13.4778 21 11.5 21C8.84877 20.997 6.30699 19.9424 4.43228 18.0677C2.55758 16.193 1.50304 13.6512 1.5 11ZM11.441 7.90302C11.6388 7.90302 11.8321 7.84438 11.9966 7.7345C12.161 7.62462 12.2892 7.46844 12.3649 7.28571C12.4406 7.10298 12.4604 6.90187 12.4218 6.70789C12.3832 6.51391 12.288 6.33578 12.1481 6.19593C12.0082 6.05607 11.8301 5.96083 11.6361 5.92225C11.4421 5.88366 11.241 5.90344 11.0583 5.97913C10.8756 6.05482 10.7194 6.18297 10.6095 6.34742C10.4996 6.51187 10.441 6.70524 10.441 6.90302C10.4407 7.03451 10.4664 7.16476 10.5165 7.28632C10.5667 7.40788 10.6403 7.51832 10.7332 7.61139C10.8261 7.70446 10.9364 7.7783 11.0578 7.82868C11.1793 7.87906 11.3095 7.90503 11.441 7.90503V7.90302ZM10.441 16.403H12.441V9.797H10.441V16.403Z" fill="black"/>
</svg>
