<svg width="24" height="24" viewBox="0 0 24 24" fill="none" xmlns="http://www.w3.org/2000/svg">
<path d="M20.3428 21.7679L16.4088 17.8329C14.848 19.0865 12.9046 19.767 10.9028 19.7609C9.15203 19.7609 7.44058 19.2417 5.98488 18.2691C4.52917 17.2964 3.39459 15.9139 2.7246 14.2964C2.05462 12.6789 1.87932 10.8991 2.22087 9.18195C2.56243 7.46483 3.4055 5.88755 4.64348 4.64958C5.88145 3.41161 7.45873 2.56853 9.17585 2.22698C10.893 1.88542 12.6728 2.06072 14.2903 2.73071C15.9078 3.40069 17.2903 4.53528 18.263 5.99098C19.2356 7.44669 19.7548 9.15813 19.7548 10.9089C19.7596 12.9109 19.0777 14.854 17.8228 16.4139L21.7568 20.3499L20.3438 21.7629L20.3428 21.7679ZM10.9028 4.06089C9.54739 4.06089 8.22243 4.46281 7.09546 5.21583C5.96849 5.96884 5.09013 7.03914 4.57144 8.29136C4.05275 9.54358 3.91704 10.9215 4.18146 12.2508C4.44589 13.5802 5.09857 14.8013 6.05698 15.7597C7.01539 16.7181 8.23648 17.3708 9.56583 17.6352C10.8952 17.8996 12.2731 17.7639 13.5253 17.2452C14.7775 16.7265 15.8478 15.8482 16.6008 14.7212C17.3539 13.5942 17.7558 12.2693 17.7558 10.9139C17.7537 9.09701 17.031 7.35515 15.7463 6.07042C14.4615 4.7857 12.7197 4.06301 10.9028 4.06089V4.06089Z" fill="black"/>
</svg>
