<svg width="52" height="52" viewBox="0 0 52 52" fill="none" xmlns="http://www.w3.org/2000/svg">
<path d="M13.3998 44.06L0.849839 31.0395C0.303861 30.4606 0.00890555 29.6893 0.0293129 28.8938C0.0497203 28.0983 0.383829 27.3432 0.958772 26.7931C1.53371 26.2429 2.30285 25.9425 3.09845 25.9571C3.89405 25.9718 4.65158 26.3005 5.20583 26.8715L15.6643 37.7215L46.8818 7.84996C47.1668 7.57527 47.5032 7.3594 47.8716 7.21468C48.24 7.06997 48.6333 6.99923 49.0291 7.00652C49.4248 7.01381 49.8153 7.09898 50.1781 7.25717C50.541 7.41535 50.8691 7.64346 51.1438 7.92846C51.4185 8.21346 51.6344 8.54978 51.7791 8.91821C51.9238 9.28663 51.9946 9.67995 51.9873 10.0757C51.98 10.4715 51.8948 10.8619 51.7366 11.2248C51.5784 11.5876 51.3503 11.9158 51.0653 12.1905L17.6653 44.146C17.0868 44.6987 16.313 44.9999 15.513 44.9837C14.713 44.9674 13.952 44.6352 13.3963 44.0595L13.3998 44.06Z" fill="#FF6600"/>
</svg>
