<svg width="32" height="29" viewBox="0 0 32 29" fill="none" xmlns="http://www.w3.org/2000/svg">
<path d="M11.4465 14.3525C11.0465 10.712 14.875 7.79149 20.0015 7.83099C25.128 7.87049 29.6125 10.854 30.0135 14.492C30.4145 18.13 26.5875 21.05 21.4605 21.0105C16.3335 20.971 11.85 17.991 11.4465 14.3525ZM30.9665 15.4815C30.504 10.9675 25.3435 7.26999 19.444 7.22149C13.5445 7.17299 9.13398 10.793 9.59398 15.307C10.054 19.821 15.219 23.52 21.119 23.569C27.019 23.618 31.4315 19.9965 30.969 15.4815" fill="#FBB584"/>
<path d="M22.0565 23.6575C19.1525 26.6865 14.485 26.9355 11.637 24.219C8.78903 21.5025 8.83703 16.8515 11.7465 13.8265C14.656 10.8015 19.3215 10.55 22.1675 13.266C25.0135 15.982 24.9675 20.6355 22.0565 23.6575ZM11.289 13.7315C7.90903 17.245 7.85503 22.6545 11.1645 25.813C14.474 28.9715 19.9 28.676 23.275 25.1595C26.65 21.643 26.711 16.2355 23.401 13.0775C20.091 9.91948 14.6685 10.215 11.289 13.7315Z" fill="#F89B6C"/>
<path d="M11.597 2.40799C17.6445 0.149989 23.6215 2.43449 24.95 7.50599C26.2785 12.5775 22.4555 18.523 16.41 20.7775C10.3645 23.032 4.38601 20.75 3.05701 15.6805C1.72801 10.611 5.55401 4.66599 11.597 2.40799ZM5.98301 4.34999C-0.289489 9.29349 -1.88599 16.462 2.41601 20.3545C6.71801 24.247 15.291 23.3945 21.566 18.449C27.841 13.5035 29.4325 6.33799 25.13 2.44399C20.8275 -1.45001 12.2535 -0.600011 5.98301 4.34999Z" fill="#F37321"/>
</svg>
